<svg xmlns="http://www.w3.org/2000/svg" xmlns:xlink="http://www.w3.org/1999/xlink" id="Layer_1" x="0px" y="0px" viewBox="0 0 64 64" style="enable-background:new 0 0 64 64;" xml:space="preserve"><style type="text/css">	.st0{fill:#FFFFFF;}</style><g>	<path class="st0" d="M49.2,35.7c-0.5-0.8-0.9-1.6-1.4-2.4l-9.4,8.8c-0.1,0.1-0.2,0.2-0.4,0.2s-0.3-0.1-0.4-0.2  c-0.2-0.2-0.2-0.6,0-0.8l9.5-8.8c0,0,0,0,0.1,0c-2.3-3.5-5-7-8.3-10.6C33.5,16,27.8,11.6,22.7,8.5c-1.8,9-13,12.6-13,12.6  c2.6,5.2,6.6,11,11.8,16.6c3.3,3.6,6.6,6.7,9.9,9.2c0,0,0,0,0.1-0.1l3-2.8c0.2-0.2,0.6-0.2,0.8,0s0.2,0.5,0,0.8l-2.9,2.7  c0.7,0.6,1.4,1.1,2.2,1.6c1.5,1.1,3.5,0.9,4.9-0.3l9.1-8.3C49.8,39.3,50.1,37.3,49.2,35.7z M31.1,30.6c-2.4,2.1-6.1,1.8-8.4-0.9  c-2.3-2.6-2.2-6.5,0.1-8.7c2.4-2.1,6.1-1.8,8.4,0.9C33.6,24.6,33.5,28.5,31.1,30.6z"></path>	<path class="st0" d="M21.3,7.4C19.6,16.1,9,19.4,9,19.4C5.6,12.8,4.9,7.2,7.5,4.9c0.8-0.8,2-1.2,3.3-1.2c0,0,3.5,0,6.6,1.6  C18.7,5.9,20,6.6,21.3,7.4z"></path>	<path class="st0" d="M11.7,31c-3.4,4.2-11.9,17.8,9.2,26.3c1.1,0.4,2.1-0.8,1.4-1.8c-2.5-3.4-5-8.8,0.1-12.3c0.7-0.5,0.8-1.4,0.2-2  c-1.3-1.4-3.2-3.5-4-4.4c-1.1-1.2-3.4-4.1-4.8-5.8C13.2,30.3,12.2,30.3,11.7,31z"></path>	<path class="st0" d="M33.9,12C39,9.9,52.7,6,58,23.6c0.3,1.1-1,2-1.9,1.2c-3-2.6-7.9-5.5-12.1-1.9c-0.6,0.5-1.4,0.5-1.9-0.1  c-1.2-1.3-3-3.3-3.9-4.2c-1-1-3.2-3.1-4.7-4.5C32.8,13.6,33,12.4,33.9,12z"></path>	<path class="st0" d="M46.9,44.2l-4.2,4c-0.9,0.9-1.4,2.2-1.2,3.5s0.9,2.9,2.6,3.4c3.4,1,5.5,2.9,5.4,5.3c0,0,2.1-3.4-0.4-5.9  s-0.8-4.4,1.4-3.2c2.2,1.1-0.6,5.1,5.8,7.6c0,0-1.7-2.6-1.3-6.7c0.3-3.1-0.3-6.5-2.9-8.4C50.5,42.6,48.3,42.8,46.9,44.2z"></path></g></svg>